<?xml version="1.0" standalone="no"?>
<!DOCTYPE svg PUBLIC "-//W3C//DTD SVG 20010904//EN"
 "http://www.w3.org/TR/2001/REC-SVG-20010904/DTD/svg10.dtd">
<svg version="1.0" xmlns="http://www.w3.org/2000/svg"
 width="1143.000000pt" height="1143.000000pt" viewBox="0 0 1143.000000 1143.000000"
 preserveAspectRatio="xMidYMid meet">
<metadata>
Created by potrace 1.11, written by Peter Selinger 2001-2013
</metadata>
<g transform="translate(0.000000,1143.000000) scale(0.100000,-0.100000)"
fill="#000000" stroke="none">
<path d="M5495 11335 c-88 -52 -167 -98 -175 -102 -8 -4 -51 -28 -95 -54 -71
-41 -488 -282 -573 -330 -96 -55 -196 -113 -487 -281 -380 -220 -342 -198
-1525 -881 -514 -296 -960 -554 -990 -572 -30 -18 -75 -44 -100 -57 -53 -30
-331 -191 -408 -237 -29 -17 -56 -31 -59 -31 -4 0 -14 -6 -22 -14 -9 -7 -48
-31 -86 -52 -39 -22 -114 -64 -167 -94 l-98 -55 0 -1302 0 -1302 148 86 c81
47 176 102 212 123 245 143 622 360 626 360 2 0 21 11 42 24 20 14 60 37 87
53 56 31 261 149 304 174 15 9 135 79 267 155 131 75 325 187 429 247 105 61
231 134 280 162 88 50 978 564 1042 601 158 93 310 180 318 183 5 2 27 15 48
28 22 14 58 35 80 48 54 30 857 492 877 504 8 6 101 59 205 119 105 61 271
157 370 214 431 249 593 343 635 366 25 14 57 33 72 43 14 11 28 19 31 19 3 0
50 26 104 58 54 32 105 61 113 65 8 4 24 13 35 20 25 15 599 349 623 362 132
73 242 140 242 146 0 5 -15 16 -32 25 -18 9 -143 81 -278 159 -135 78 -265
153 -290 167 -25 14 -112 65 -195 113 -82 48 -170 99 -195 113 -25 14 -74 42
-109 64 -34 21 -65 38 -68 38 -3 0 -58 31 -122 69 -152 90 -296 173 -346 201
-61 34 -227 131 -255 149 -14 8 -27 16 -30 16 -3 0 -48 26 -100 56 -140 83
-221 129 -223 129 -1 -1 -74 -43 -162 -95z"/>
<path d="M8190 9778 c-85 -49 -229 -133 -320 -185 -181 -105 -276 -160 -360
-209 -49 -29 -280 -162 -895 -516 -110 -64 -219 -126 -241 -139 -187 -108
-264 -154 -264 -159 0 -3 24 -18 53 -33 28 -15 59 -31 67 -37 8 -5 53 -32 100
-58 47 -27 306 -177 575 -332 487 -282 578 -334 645 -372 121 -70 497 -287
555 -321 39 -23 79 -47 90 -52 21 -12 469 -269 495 -285 57 -34 183 -107 220
-128 25 -14 144 -82 265 -152 121 -71 393 -228 605 -350 212 -122 421 -243
465 -269 44 -25 87 -50 97 -56 199 -115 245 -140 255 -143 8 -2 11 320 11
1297 0 743 -4 1301 -9 1301 -5 0 -30 13 -56 29 -105 62 -726 422 -860 497 -23
13 -93 54 -155 90 -62 37 -138 80 -168 96 -30 17 -59 34 -65 38 -5 4 -30 19
-55 32 -25 14 -112 64 -193 112 -82 47 -151 86 -154 86 -2 0 -24 14 -48 30
-24 17 -46 30 -49 30 -3 0 -35 18 -71 40 -36 22 -67 40 -69 40 -4 0 -196 112
-256 148 -19 12 -39 22 -45 21 -5 0 -80 -41 -165 -91z"/>
<path d="M3255 6928 c-77 -45 -180 -104 -230 -133 -49 -28 -162 -93 -250 -145
-88 -51 -180 -104 -205 -118 -25 -14 -155 -89 -290 -167 -135 -78 -265 -153
-290 -167 -25 -14 -123 -71 -219 -127 -95 -55 -175 -101 -176 -101 -2 0 -33
-18 -70 -41 -37 -22 -84 -50 -104 -61 -162 -91 -459 -263 -469 -273 -13 -11
100 -81 509 -313 19 -11 131 -75 249 -144 118 -69 235 -136 260 -150 25 -14
86 -49 135 -78 50 -29 108 -63 130 -75 68 -39 219 -127 250 -146 17 -10 37
-22 45 -26 8 -3 47 -26 87 -50 39 -24 74 -43 77 -43 3 0 30 -16 61 -35 30 -19
65 -40 77 -45 13 -6 43 -23 68 -39 25 -16 51 -30 59 -30 8 -1 71 32 140 73
147 86 635 367 701 404 25 14 57 33 72 43 14 11 28 19 31 19 3 0 41 21 84 46
43 26 98 58 123 72 52 29 1153 665 1253 723 37 22 67 42 67 44 0 2 -253 149
-675 392 -16 10 -58 35 -92 55 -34 21 -64 38 -66 38 -2 0 -125 70 -272 155
-147 85 -271 155 -276 155 -5 0 -9 5 -9 10 0 6 -4 10 -9 10 -6 0 -118 63 -251
140 -133 77 -243 140 -245 140 -3 0 -29 16 -59 35 -30 19 -61 35 -68 35 -7 0
-76 -37 -153 -82z"/>
<path d="M8133 4161 c0 -1496 3 -2723 6 -2728 3 -5 49 -35 101 -65 209 -124
657 -382 688 -397 17 -8 32 -19 32 -23 0 -4 5 -8 11 -8 6 0 65 -32 132 -71 67
-40 147 -85 177 -102 30 -16 60 -33 65 -37 6 -4 28 -18 50 -30 50 -28 339
-195 460 -265 346 -202 735 -425 743 -425 6 0 10 1028 10 2724 l0 2723 -161
94 c-89 52 -171 99 -182 106 -11 7 -27 15 -35 19 -8 4 -48 27 -88 51 -41 24
-76 43 -78 43 -3 0 -17 8 -32 19 -23 16 -283 167 -402 234 -34 19 -668 384
-965 557 -403 233 -501 289 -516 295 -15 6 -16 -222 -16 -2714z"/>
<path d="M5620 5435 c-47 -28 -325 -188 -367 -211 -23 -13 -140 -81 -260 -151
-120 -69 -238 -138 -263 -152 -212 -121 -267 -153 -280 -161 -14 -9 -329 -190
-425 -245 -22 -12 -80 -46 -130 -75 -49 -29 -109 -63 -133 -77 -23 -13 -93
-54 -155 -90 -62 -36 -132 -77 -157 -91 -25 -14 -142 -81 -260 -150 -118 -69
-235 -136 -260 -150 -45 -25 -266 -153 -450 -259 -131 -76 -195 -113 -420
-243 -107 -62 -224 -129 -260 -150 -81 -48 -822 -475 -870 -502 -19 -11 -77
-45 -127 -74 l-93 -55 0 -1300 0 -1301 33 20 c96 57 156 92 187 109 43 24 139
80 160 93 63 40 574 330 581 330 5 0 9 5 9 10 0 6 4 10 9 10 8 0 182 99 466
265 50 29 214 123 365 210 151 87 295 170 320 185 25 15 65 39 90 52 25 14
115 66 200 115 211 122 477 276 520 300 19 11 89 52 155 90 66 39 140 81 165
95 76 43 423 244 460 267 19 12 47 27 63 33 15 7 27 16 27 20 0 4 4 8 9 8 8 0
180 96 251 140 21 12 223 129 279 161 41 23 261 150 511 296 l85 49 2 1297 c2
713 0 1297 -5 1297 -4 0 -18 -7 -32 -15z"/>
</g>
</svg>
